<?xml version="1.0" standalone="no"?><!DOCTYPE svg PUBLIC "-//W3C//DTD SVG 1.1//EN" "http://www.w3.org/Graphics/SVG/1.1/DTD/svg11.dtd"><svg t="1612337767482" class="icon" viewBox="0 0 1024 1024" version="1.1" xmlns="http://www.w3.org/2000/svg" p-id="3548" width="128" height="128" xmlns:xlink="http://www.w3.org/1999/xlink"><defs><style type="text/css"></style></defs><path d="M793.175 307.603c29.8345-3.248 58.251-11.217 84.488-23.143A279.517 279.517 0 0 1 804.15 362.123a431.3765 431.3765 0 0 1 0.6005 22.627c0 234.7205-190.2795 425-425 425-85.9965 0-166.026-25.544-232.919-69.455a280.0385 280.0385 0 0 0 43.919 3.455c67.502 0 129.3825-24.0615 177.5395-64.0715-64.848-1.8945-119.364-44.948-138.3475-103.9425a166.2105 166.2105 0 0 0 25.808 2.0135c14.0455 0 27.679-1.7605 40.6975-5.063C228.131 558.672 176.75 498.2115 176.75 425.75c0-0.7005 0.017-1.3975 0.0265-2.096 20.1335 10.996 42.8105 17.916 66.9225 19.6575C204.4685 416.256 178.75 371.01 178.75 319.75c0-28.12 7.745-54.4275 21.2075-76.92 73.626 90.465 183.7275 150.0505 307.892 156.354a150.3685 150.3685 0 0 1-4.0995-34.9345c0-82.843 67.157-150 150-150 43.1045 0 81.9555 18.1875 109.3165 47.3 34.3105-6.0115 66.4585-18.3055 95.2055-35.6685-12.3465 33.78-35.421 62.394-65.097 81.722z" fill="#1296db" p-id="3549"></path></svg>